<svg version="1.2" xmlns="http://www.w3.org/2000/svg" viewBox="0 0 1152 1054" width="500" height="457">
	<title>cra</title>
	<style>
		.s0 { fill: #09d3ac } 
		.s1 { fill: #ffffff } 
	</style>
	<g id="Background">
		<path id="Path 0" class="s0" d="m112 471.5v471.5l1039.5-0.5 0.5-942.5h-1040zm-92-379.3l-20.5 20.3 0.5 941.5h1040.5l40-40h-1039.5l-0.5-942z"/>
		<path id="Path 1" fill-rule="evenodd" class="s1" d="m0 112.5l41-41v942.5h1039.5l-40 40h111.5v-111.5l-1040 0.5v-943h-112zm153 789.5h958v-861h-958z"/>
		<path id="Path 2" class="s0" d="m449.5 98c-3.3 0.6-9.4 2.1-13.5 3.5-4.1 1.4-10.4 4.2-13.9 6.2-3.5 2.1-9.5 6.7-13.4 10.3-3.8 3.6-8.9 9.2-11.2 12.5-2.4 3.3-6.1 9.6-8.3 14-2.2 4.4-5.3 12.3-7 17.5-1.6 5.2-3.7 13.1-4.6 17.5-0.8 4.4-2.1 12.1-2.8 17-0.7 5.2-1.3 18.7-1.2 32 0 12.7 0.6 28.2 1.2 34.5 0.7 6.3 2.2 17.4 3.3 24.5 1.2 7.1 3.4 19.5 5 27.5 1.6 8 2.8 14.5 2.7 14.5-0.2 0.1-7.3 2.4-15.8 5.2-8.5 2.8-21.6 7.4-29 10.4-7.4 2.9-21.8 9.5-32 14.5-10.2 5.1-23.9 12.8-30.5 17.2-6.6 4.3-15.5 10.6-19.8 14-4.2 3.4-11 9.5-14.9 13.5-4 4-9.7 10.4-12.6 14.3-2.9 3.8-7.5 11.4-10.2 16.9-2.8 5.5-5.9 13.6-7 18-1.3 5.3-2 11.3-2 17.5 0 5.2 0.6 12.4 1.4 16 0.8 3.6 2.9 10.1 4.7 14.5 1.8 4.4 6 12 9.3 17 3.4 5.1 10.6 13.6 16.6 19.6 5.8 5.8 15 13.9 20.5 17.9 5.5 4.1 14.7 10.4 20.5 13.9 5.8 3.5 16.6 9.4 24 13.1 7.4 3.7 18.9 9 25.5 11.8 6.6 2.8 18.3 7.3 26 10 7.7 2.7 16.8 5.8 20.3 6.8 6 1.8 6.3 2 5.7 4.4-0.4 1.4-2 9-3.6 17-1.6 8-3.8 20.6-4.9 28-1 7.4-2.4 18.9-3 25.5-0.5 6.6-1 19.5-1 28.8 0 9.2 0.5 21.1 1 26.4 0.6 5.4 2 14.5 3.1 20.3 1.1 5.8 3.5 15 5.3 20.5 1.9 5.5 4.8 12.9 6.6 16.5 1.8 3.6 5 9 7 12 2.1 3 5.9 7.9 8.6 10.9 2.7 3 7.6 7.3 10.9 9.7 3.3 2.3 8.9 5.6 12.5 7.3 3.6 1.7 10.1 4 14.5 5.2 6.1 1.6 10.9 2.1 20 2.2 6.7 0 16.1-0.7 21.3-1.7 5-0.9 14.9-3.5 21.9-5.8 7.1-2.3 19.8-7.7 28.3-11.9 8.5-4.2 20.9-11.2 27.5-15.4 6.6-4.2 17.2-11.5 23.5-16.3 6.3-4.7 16.7-13 23-18.4 6.3-5.3 14.2-12.2 17.5-15.1l6-5.4c14 12.6 21.8 19.4 26.5 23.3 4.7 3.9 13.9 11.1 20.5 16 6.6 4.9 17.6 12.4 24.5 16.7 6.9 4.3 18.4 10.7 25.5 14.2 7.1 3.5 17.5 8 23 10 5.5 2.1 14.7 4.8 20.5 6.1 5.8 1.3 15.5 2.7 21.5 3.1 7.1 0.4 13.8 0.2 19-0.7 4.4-0.7 11.8-2.6 16.5-4.3 4.7-1.7 11.6-5.2 15.5-7.8 3.9-2.6 9.5-7.3 12.6-10.6 3-3.2 7.5-8.7 9.9-12.3 2.4-3.6 5.8-9.6 7.5-13.5 1.8-3.9 4.4-10.6 5.8-15 1.4-4.4 3.3-11.1 4.2-15 0.9-3.9 2.3-12.2 3.1-18.5 1-7.3 1.5-19.3 1.5-32.5 0-12-0.7-27.4-1.6-36-0.8-8.3-2.7-21.8-4.1-30-1.3-8.3-3.5-19.6-4.7-25.1l-2.2-10.2c21.7-7.1 35.9-12.4 45.5-16.2 9.6-3.9 24-10.3 32-14.4 8-4 19.1-10.1 24.8-13.7 5.7-3.5 14.9-9.8 20.5-14 5.6-4.2 14.9-12.5 20.7-18.5 5.8-6 12.7-14.3 15.4-18.4 2.7-4.1 6.2-10.3 7.8-13.8 1.5-3.4 3.8-9.7 5-14 1.7-5.9 2.2-10.4 2.2-19.2 0-8.9-0.5-13.3-2.2-19.5-1.3-4.4-4-11.6-6.1-16-2.2-4.4-6.6-11.6-9.8-16-3.3-4.4-9.1-11.1-12.9-15-3.8-3.9-10.7-10.1-15.4-13.9-4.7-3.7-12.8-9.6-18-13.1-5.2-3.4-13.8-8.6-19-11.6-5.2-2.9-14.7-7.7-21-10.7-6.3-3-17.4-7.8-24.5-10.7-7.1-2.8-20.2-7.6-29-10.5-8.8-2.9-16.1-5.3-16.3-5.4-0.2 0 1.1-6.6 2.7-14.6 1.6-8 4.1-22.4 5.5-32 1.5-9.6 3.1-26.1 3.8-36.5 0.9-14.4 0.9-23 0-35.5-0.6-9.1-1.8-20.6-2.7-25.5-0.8-4.9-2.9-13.7-4.6-19.5-1.7-5.8-4.9-14.6-7.3-19.5-2.3-4.9-6-11.7-8.3-15-2.2-3.3-6.7-8.6-9.9-11.9-3.3-3.2-8.4-7.6-11.4-9.6-3-2.1-8.2-5-11.5-6.5-3.3-1.4-9.6-3.5-14-4.6-5.5-1.3-11.6-1.9-19.5-1.9-6.3 0-15.5 0.7-20.5 1.5-5 0.8-14.9 3.4-22 5.7-8 2.6-19.5 7.4-30 12.7-9.7 4.9-23.8 13.1-33 19.2-8.8 5.9-21.2 14.9-27.7 20.1-6.4 5.1-16.9 14.1-23.5 19.9l-11.8 10.6c-14.7-13-24.4-21.2-31-26.5-6.6-5.4-16.5-13-22-16.9-5.5-3.9-15.4-10.4-22-14.4-6.6-4-17.9-10.1-25-13.5-7.1-3.5-17.7-7.9-23.5-9.9-5.8-2-15-4.5-20.5-5.6-5.5-1.1-14.9-2.2-21-2.4-6.1-0.2-13.7 0-17 0.5z"/>
		<path id="Path 3" class="s1" d="m791.5 138c-3.9 0.4-10.6 1.7-15 2.9-4.4 1.2-10.9 3.4-14.5 4.8-3.6 1.4-11.9 5.3-18.5 8.7-6.6 3.3-18.5 10.4-26.5 15.7-8 5.3-20.4 14.4-27.5 20.2-7.1 5.7-16.6 13.8-21 18l-8 7.4c12.5 13.8 20.1 22.5 25.1 28.3 4.9 5.8 13.2 15.9 18.5 22.5 5.2 6.6 13.3 17.2 18 23.5l8.5 11.5c18.5 2 31.3 3.7 40.4 5.1 9.1 1.3 22.4 3.5 29.5 4.9 7.1 1.3 18.4 3.5 25 4.9 6.6 1.4 12.1 2.5 12.2 2.3 0.1-0.1 1.3-6.1 2.6-13.2 1.4-7.1 3.3-17.9 4.1-24 0.9-6.1 2.1-15.9 2.7-22 0.6-6.1 1-20 1-31 0-13.2-0.5-23.9-1.6-31.5-0.9-6.3-2.8-15.2-4.1-19.8-1.3-4.5-3.9-11.2-5.8-14.9-1.9-3.8-4.8-8.6-6.6-10.8-1.8-2.2-5.3-5.5-7.8-7.3-2.6-1.8-6.7-3.9-9.2-4.6-2.5-0.8-6.8-1.6-9.5-1.8-2.8-0.3-8.1-0.1-12 0.2zm-342.5 1.7c-2.5 0.9-6.7 3.2-9.4 5.2-2.7 2-6.3 5.6-8.1 8.1-1.8 2.5-4.4 6.8-5.8 9.5-1.4 2.8-3.6 8.8-5.1 13.5-1.4 4.7-3.3 13.2-4.3 19-1.2 7.5-1.6 16.7-1.6 32.5 0 18.2 0.4 25.6 2.7 42.5 1.5 11.3 3.9 26.6 5.4 34 2.6 13 2.8 13.5 5.2 13.4 1.4 0 9.2-1.5 17.5-3.2 8.2-1.7 21.5-4.2 29.5-5.6 8-1.4 24.4-3.7 36.5-5.2l22-2.7c8.5-11.8 16-21.5 22-29.3 6-7.8 17.2-21.3 24.7-30 7.6-8.8 15.8-18.1 18.3-20.9l4.5-5c-17.2-15.5-26.1-23.1-30.9-26.9-4.7-3.8-15.1-11.2-23.1-16.5-8-5.3-21.9-13.4-31-18-9.1-4.6-19.6-9.5-23.5-10.8-3.9-1.3-10.6-3-15-3.8-4.4-0.9-12.1-1.5-17-1.4-5.3 0-10.8 0.7-13.5 1.6zm177.8 110.1c-2.5 2.6-8.8 9.6-14 15.7-5.1 6.1-12.8 15.4-17.1 20.8-4.2 5.3-7.7 10-7.7 10.5 0 0.4 19.8 0.7 44 0.7 24.2 0 44-0.2 44-0.5 0-0.3-4.4-5.9-9.8-12.5-5.3-6.6-14.5-17.4-20.3-24-5.8-6.6-11.5-12.8-12.6-13.7-1.9-1.7-2.1-1.6-6.5 3zm-34.8 88.2c-9.6 0.4-21.9 1-27.3 1.4l-9.7 0.6c-16.1 25.2-24.6 38.8-29.2 46.5-4.7 7.7-12.1 20.5-16.5 28.5-4.5 8-12.9 23.9-18.6 35.5l-10.6 21c15.4 30.6 23.6 46.1 28.1 54.3 4.5 8.1 11.9 21 16.6 28.7 4.7 7.7 13.5 21.6 19.6 30.8 6.1 9.3 11.8 17 12.6 17.2 0.8 0.2 11.9 0.9 24.5 1.6 15.1 0.8 37.7 1 66 0.5 23.6-0.3 46.8-0.9 51.5-1.2l8.5-0.6c16.5-25 25.1-38.6 29.7-46.3 4.6-7.7 12.2-20.7 16.8-29 4.5-8.2 12.9-24.3 18.6-35.8l10.4-20.7c-10.6-22.1-17.8-36.1-23-45.5-5.1-9.4-14-24.9-19.8-34.5-5.8-9.6-15.4-24.9-21.3-34l-10.8-16.5c-14.4-1.2-29.2-2-42.1-2.5-12.9-0.5-30.9-0.9-40-0.8-9.1 0.1-24.4 0.4-34 0.8zm-113 11.5c-10.7 1.9-24.7 4.5-31 6-6.3 1.4-11.7 2.8-12 3-0.3 0.3 1.8 7.1 4.6 15.2 2.9 8.2 8 22.3 11.5 31.5 3.5 9.2 6.6 16.8 6.9 16.8 0.3 0 2.7-4.4 5.5-9.7 2.7-5.3 9.8-18 15.6-28.2 5.8-10.2 13.3-23 16.7-28.4 5.7-8.8 6-9.7 3.9-9.6-1.2 0-11 1.6-21.7 3.4zm282-3c0 0.3 4.6 8 10.2 17.2 5.5 9.3 15 25.6 20.9 36.3 6 10.7 11.2 20.1 11.6 20.8 0.5 0.8 3.5-5.9 8-18 3.9-10.6 8.8-24.8 11-31.5 2.1-6.7 3.6-12.4 3.3-12.7-0.3-0.3-6.8-1.9-14.5-3.5-7.7-1.6-21-4.1-29.5-5.5-8.5-1.4-16.8-2.8-18.3-3.1-1.5-0.2-2.7-0.2-2.7 0zm-382.5 27.9c-8.3 2.9-20.2 7.4-26.5 10-6.3 2.6-17.6 7.8-25 11.5-7.4 3.8-17.6 9.3-22.5 12.3-5 3.1-13.1 8.7-18 12.5-5 3.9-12.2 10.3-16 14.4-3.9 4.1-8.7 10.1-10.7 13.4-2 3.3-4.4 8.5-5.4 11.5-1.2 3.9-1.6 7.6-1.3 13 0.4 6.1 1.2 8.9 4.1 15 2 4.1 6.2 10.5 9.2 14.2 3.1 3.8 9.1 9.8 13.3 13.4 4.3 3.6 12.7 9.9 18.8 13.9 6 4 15.3 9.6 20.5 12.5 5.2 2.8 15.8 8 23.5 11.5 7.7 3.4 19.9 8.4 27 11 7.1 2.6 16.4 5.8 20.5 7.1 4.1 1.3 7.5 2.2 7.5 2.1 0.1-0.1 3.1-9.4 6.8-20.7 3.7-11.3 9.3-27 12.3-35 3-8 8.4-21.4 11.9-29.8 3.6-8.3 6.5-15.8 6.5-16.5 0-0.6-2.5-7.1-5.6-14.2-3.1-7.1-7.6-18.2-10.1-24.5-2.5-6.3-6.5-17.1-9-24-2.4-6.9-6.4-18.7-8.9-26.3-3.5-10.8-4.8-13.7-6.2-13.6-0.9 0-8.5 2.4-16.7 5.3zm480 18c-4.2 12.7-10.2 29.8-13.5 38.1-3.2 8.2-8.3 20.9-11.4 28l-5.6 13c9.1 20.9 14.5 34 17.8 42.5 3.3 8.5 9.5 25.7 13.6 38.3l7.6 22.7c24.4-8.4 33.7-11.7 36.5-12.8 2.7-1.1 7.9-3.2 11.5-4.8 3.6-1.6 12.6-5.8 20-9.5 7.4-3.6 17.8-9.2 23-12.3 5.2-3.2 13.5-8.8 18.5-12.6 5-3.7 12.4-10.3 16.5-14.7 4.1-4.4 9.2-10.9 11.3-14.4 2.1-3.5 4.5-8.9 5.4-11.9 1.1-3.8 1.4-7.6 1-12.5-0.4-5.5-1.4-8.8-4.8-15.5-3.6-7.2-5.9-10.2-15.3-19.5-6.1-6.1-15.3-14-20.4-17.5-5.1-3.6-14.7-9.6-21.5-13.3-6.7-3.8-17.8-9.5-24.7-12.7-6.9-3.1-18.8-8.1-26.5-11-7.7-2.9-17.9-6.5-22.7-8l-8.7-2.7zm-58 134.8c-2.1 4-8.1 15-13.3 24.3-5.2 9.4-11.8 20.8-14.7 25.5-2.8 4.7-6.6 10.8-8.3 13.5-1.7 2.8-3.2 5.2-3.2 5.5 0 0.3 5.8-0.3 12.8-1.3 7-1 21.7-3.6 32.7-5.8 11-2.2 20.1-4.1 20.3-4.2 0.2-0.1-1.1-4.9-2.9-10.7-1.7-5.8-6.7-20.2-11.1-32-4.4-11.8-8.1-21.6-8.2-21.8-0.2-0.2-2 2.9-4.1 7zm-345.4 5.1c-2.4 6.2-7.4 20.4-11.2 31.7-3.8 11.3-6.6 20.7-6.3 21 0.4 0.3 6.5 1.7 13.8 3.2 7.2 1.5 21.2 4.1 31.1 5.8 9.9 1.7 18.6 3 19.3 2.8 0.7-0.2-1.5-4.6-6-11.8-3.9-6.3-12.4-20.8-18.7-32.2-6.4-11.3-13-23.1-14.6-26.2l-3-5.6zm-30.5 99c-0.9 4-2.5 12.4-3.6 18.8-1.1 6.3-2.7 17.8-3.7 25.5-1.2 9.5-1.7 21.5-1.8 37.5 0 17.9 0.4 26.2 1.8 35 1 6.3 3 15.1 4.3 19.5 1.4 4.4 4.2 11.1 6.2 15 2 3.8 6.1 9.5 9.1 12.6 4 4 7.2 6.2 11.6 7.8 3.3 1.2 8.7 2.5 12 2.8 3.3 0.3 9.6 0 14-0.7 4.4-0.7 12.2-2.6 17.5-4.3 5.2-1.6 13.1-4.6 17.5-6.5 4.4-1.9 12-5.8 17-8.5 4.9-2.7 13.7-8.1 19.5-12 5.7-3.9 14.9-10.4 20.4-14.6 5.4-4.2 15.3-12.4 22-18.2 6.6-5.8 12.6-11.3 13.3-12.2 1.1-1.5 0-3.1-8.1-12-5.1-5.6-13.1-14.7-17.8-20.2-4.7-5.5-13.4-16.3-19.4-24-6-7.7-13.7-17.9-17.1-22.5l-6.2-8.5c-12.1-1.3-23.7-2.7-33.6-4.1-9.9-1.4-24.3-3.7-32-5.1-7.7-1.4-19.2-3.6-25.5-4.9-6.4-1.3-12.5-2.7-13.7-2.9-2-0.5-2.3 0.2-3.7 6.7zm400.4-3.7c-5.8 1.3-16.6 3.5-24 4.9-7.5 1.4-21.2 3.6-30.5 5-9.4 1.3-22.2 3-28.5 3.6l-11.5 1.3c-17.4 23.4-27.6 36.5-33.9 44.2-6.3 7.7-16.9 20-23.6 27.5l-12 13.5c6.5 5.9 13 11.6 18.5 16.3 5.5 4.8 14.5 12.1 20 16.3 5.5 4.2 14.2 10.4 19.5 13.8 5.2 3.4 13.7 8.6 19 11.6 5.2 2.9 13.7 7.1 19 9.3 5.2 2.2 13.3 5.2 18 6.5 4.6 1.4 12.5 3 17.5 3.7 6.6 0.9 10.5 0.9 15 0.1 3.3-0.6 8.2-2.2 11-3.6 2.7-1.3 6.9-4.3 9.3-6.7 2.3-2.4 5.6-6.4 7.1-8.8 1.6-2.5 4.3-7.9 5.9-12 1.7-4.2 3.9-12 5.1-17.5 1.1-5.5 2.5-16.6 3.1-24.5 0.8-10.3 0.8-19.4 0-31.5-0.5-9.4-1.9-23.8-3-32-1.1-8.3-3.3-21.3-4.8-29-2-10-3.3-14.1-4.3-14.2-0.8-0.1-6.2 0.9-11.9 2.2zm-237 18.5c0 0.2 3.5 4.7 7.7 10 4.2 5.2 13 15.5 19.4 23 6.4 7.4 12.9 14.7 14.5 16.3l2.9 2.8c18.9-21.4 28.7-33 34-39.6l9.7-12c-18.4-0.4-38.3-0.6-56-0.8-17.7-0.1-32.2 0-32.2 0.3z"/>
		<path id="Path 4" class="s0" d="m622 394c-3.6 0.4-8.5 1.3-11 2-2.5 0.7-7.6 2.6-11.5 4.4-3.9 1.8-9.3 4.7-12 6.6-2.8 1.9-7.2 5.5-9.9 8-2.7 2.5-6.8 7.2-9.1 10.5-2.3 3.3-5.7 8.8-7.4 12.3-1.7 3.4-4 9.5-5.1 13.4-1.1 4-2.3 10.9-2.6 15.3-0.4 4.6-0.1 11.2 0.5 15.5 0.7 4.1 2.3 10.9 3.7 15 1.4 4.1 4.4 10.6 6.7 14.5 2.3 3.9 7.1 10.1 10.7 13.9 3.6 3.7 9.6 8.9 13.5 11.4 3.9 2.6 10.4 5.9 14.5 7.5 4.1 1.6 10.8 3.5 14.8 4.3 3.9 0.8 10 1.4 13.4 1.4 3.5-0.1 9.7-0.7 13.8-1.4 4.1-0.8 10.9-2.7 15-4.3 4.1-1.6 10.6-4.9 14.5-7.5 3.9-2.5 9.9-7.7 13.5-11.4 3.6-3.8 8.4-10 10.7-13.9 2.3-3.9 5.4-10.6 6.8-15 1.5-4.4 3.2-11.8 3.8-16.5 0.8-6.4 0.8-10.8-0.1-17.8-0.7-5-2.6-12.9-4.2-17.5-1.7-4.5-4.8-10.9-6.8-14.2-2-3.3-6.6-9.1-10.2-12.9-3.6-3.7-9.6-8.9-13.5-11.4-3.9-2.6-10.4-5.9-14.5-7.5-4.1-1.6-10.9-3.5-15-4.3-4.1-0.7-9.5-1.3-12-1.2-2.5 0-7.4 0.4-11 0.8z"/>
	</g>
</svg>