<svg version="1.2" xmlns="http://www.w3.org/2000/svg" viewBox="0 0 1628 1628" width="500" height="500">
	<title>Screen Shot 2023-12-27 at 3</title>
	<style>
		.s0 { fill: #fefefe } 
		.s1 { fill: #ffffff } 
		.s2 { fill: #000000 } 
		.s3 { fill: #6a6a6a } 
		.s4 { fill: #888888 } 
		.s5 { fill: #fdfdfd } 
		.s6 { fill: #3d3d3d } 
	</style>
	<g id="Background">
		<path id="Path 0" class="s0" d="m0 814v686h1628v-1372h-1628z"/>
		<path id="Path 1" class="s1" d="m0 64v64h1628v-128h-1628zm0 1500v64h1628v-128h-1628z"/>
		<path id="Path 2" class="s2" d="m419 374c-7.4 0.5-19.1 1.6-26 2.5-6.9 0.9-17.9 2.7-24.5 4-6.6 1.3-19 4.4-27.5 6.8-8.5 2.5-21.8 6.9-29.5 9.8-7.7 2.9-22.3 9.5-32.5 14.6-10.2 5.1-24.3 12.9-31.5 17.4-7.2 4.5-17.9 11.9-24 16.4-6.1 4.5-15.9 12.5-22 17.7-6.1 5.2-16.8 15.5-23.9 22.9-7.1 7.4-17.5 19.1-23 26-5.6 7-13.2 17.3-17.1 23-3.8 5.7-9.8 15.1-13.3 20.9-3.5 5.8-10.1 18.1-14.7 27.5-4.5 9.4-10.8 23.5-13.8 31.5-3.1 8-7.2 19.9-9.2 26.5-2 6.6-5.4 19.2-7.5 28-2.1 8.8-5.5 24.1-7.4 34-1.9 9.9-6 31.7-9.1 48.5l-5.5 30.5v72c4.6 20.9 7.5 37.6 9.5 50.5 2 12.9 5.2 31.1 7.2 40.5 1.9 9.4 5.2 23.3 7.4 31 2.1 7.7 6.3 21.4 9.5 30.5 3.1 9.1 8.4 22.8 11.8 30.5 3.4 7.7 9.5 20.1 13.6 27.5 4.1 7.4 11 18.9 15.4 25.5 4.3 6.6 12.9 18.3 19.1 26 6.2 7.7 17.1 19.7 24.1 26.6 7.1 6.9 17.6 16.3 23.4 20.9 5.8 4.6 14.3 10.9 19 14 4.7 3.2 12.8 8.3 18 11.5 5.2 3.2 14.2 8.1 20 11 5.8 2.9 15.4 7.4 21.5 10 6.1 2.6 18 7.1 26.5 10 8.5 2.9 22.7 7.1 31.5 9.3 8.8 2.2 21.6 5 28.5 6.1 6.9 1.1 18.1 2.8 25 3.8 10 1.4 19.7 1.7 48 1.7 28.3 0.1 38-0.3 48-1.7 6.9-0.9 18.8-2.9 26.5-4.3 7.7-1.4 19.2-3.9 25.5-5.5 6.3-1.7 16.5-4.7 22.5-6.6 6-2 18-6.5 26.5-10 8.5-3.5 20.2-8.9 26-12 5.8-3 16-8.9 22.8-13.1 6.8-4.3 16.6-10.9 21.7-14.7 5.1-3.8 13.1-10.2 17.7-14.2 4.6-3.9 13.1-12 18.9-18 5.8-5.9 14.3-15.5 18.9-21.3 4.6-5.8 12.3-16.6 17.2-24 4.9-7.4 12.6-20.9 17.2-30 4.6-9.1 10.6-22.1 13.4-29 2.8-6.9 7.1-18.8 9.7-26.5 2.5-7.7 6.6-21.9 9-31.5 2.4-9.6 5-20.3 5.7-23.8 1.1-5.5 1.1-6.4-0.2-7.2-0.8-0.5-5.1-1.7-9.5-2.7-5-1.1-11.7-1.8-18-1.7-8.1 0-11.1 0.5-16 2.4-4 1.6-7.7 4.1-11 7.5-2.8 2.8-6.9 8.6-9.2 13-2.2 4.4-6.2 14.5-8.8 22.5-2.6 8-6.8 19.7-9.2 26-2.5 6.3-7.9 18.3-12.1 26.5-4.2 8.3-12 21.5-17.4 29.5-5.3 8-13.6 19-18.5 24.5-4.9 5.5-12.2 13.2-16.3 17.1-4.1 3.9-10.4 9.5-14 12.4-3.6 2.9-11.2 8.5-17 12.3-5.8 3.8-16.1 9.7-23 13.2-6.9 3.4-16.7 7.9-21.8 9.9-5 2-16.1 5.7-24.4 8.2-8.4 2.5-20.9 5.8-27.8 7.4-6.9 1.6-18.1 3.8-25 4.9-6.9 1.1-17.9 2.6-24.5 3.2-6.6 0.7-22.4 1.2-35 1.2-15.6 0-27-0.6-35.5-1.7-6.9-0.9-18.4-2.8-25.5-4.2-7.1-1.4-18.2-4.2-24.5-6.1-6.3-1.9-16.7-5.5-23-7.9-6.3-2.5-17.3-7.5-24.5-11.2-7.1-3.7-18.8-10.6-26-15.3-7.1-4.7-17.3-12.1-22.5-16.5-5.2-4.3-13-11.2-17.4-15.4-4.3-4.1-12.1-12.5-17.4-18.5-5.2-6-12.8-15.7-16.9-21.5-4.1-5.8-10.4-15.3-13.9-21.2-3.5-6-9.1-16.2-12.4-22.8-3.3-6.6-8.2-17.5-10.9-24.2-2.7-6.8-6.7-17.9-8.9-24.8-2.2-6.9-5.4-17.9-7.1-24.5-1.6-6.6-4.1-18.1-5.5-25.5-1.3-7.4-3.1-19.4-4-26.5-0.8-7.1-2-20.4-2.6-29.5-0.5-9.1-1-23.6-1-32.2v-15.8l667.5-0.5c0.5-40.3 0.1-61-0.5-72-0.6-11-1.5-24.3-2.1-29.5-0.5-5.2-1.9-16-3-24-1.1-8-3.4-21-5-29-1.7-8-4.6-20.4-6.6-27.5-1.9-7.1-5.8-19.5-8.5-27.5-2.8-8-7.7-20.6-11-28-3.3-7.4-8.5-18.2-11.7-24-3.2-5.8-8.3-14.5-11.3-19.5-3.1-5-8.2-12.6-11.3-17-3.2-4.4-9.2-12.3-13.4-17.5-4.2-5.2-13.7-15.7-21.1-23.4-7.4-7.6-18.9-18.4-25.6-24-6.7-5.5-17.2-13.8-23.5-18.3-6.3-4.5-16.6-11.3-22.9-15.1-6.3-3.8-17.4-9.9-24.5-13.5-7.1-3.6-18.6-8.8-25.5-11.5-6.9-2.7-17.5-6.6-23.5-8.5-6-2-15.5-4.7-21-6.1-5.5-1.4-16.5-3.6-24.5-5-8-1.4-19.4-3-25.5-3.5-6.1-0.6-17.1-1.2-24.5-1.5-7.4-0.2-19.6 0-27 0.4zm452 21.1c-3.6 0.4-9.7 1.3-13.6 2-3.9 0.6-7.2 1.3-7.3 1.5 0 0.2 36.5 48 81.2 106.2 44.7 58.1 101.3 131.8 125.8 163.7 24.5 31.9 55.2 72 68.2 89 14.9 19.4 23.4 31.4 22.8 32-0.5 0.5-28.4 37.9-62 83-33.6 45.1-71.8 96.4-85 114-13.1 17.6-57.5 77.2-98.7 132.4-58.9 78.9-74.6 100.5-73.4 101.2 0.8 0.4 5.5 1.6 10.5 2.5 5 0.9 14 1.7 20 1.7 6.1 0 14.1-0.7 18-1.5 3.9-0.9 10.1-2.9 14-4.5 3.9-1.6 9.7-4.6 13-6.8 3.3-2.2 10.3-8.2 15.5-13.5 7.7-7.6 15.5-17.8 40-52 16.7-23.4 42.1-58.5 56.5-78 14.4-19.5 58.9-79.1 98.9-132.5 40.1-53.4 73.4-97.7 74.1-98.5 1.1-1.3 4.1 2.3 20.2 24 10.5 14 44 59.3 74.5 100.5 30.5 41.3 60.8 82.4 67.4 91.5 6.6 9.1 20.4 28.2 30.5 42.5 10.2 14.3 24.6 34.8 31.9 45.5 7.3 10.7 17.7 25.8 22.9 33.5 5.6 8.1 13.2 17.5 18.1 22.6 4.7 4.7 11.4 10.6 15 12.9 3.6 2.4 9.2 5.6 12.5 7.1 3.3 1.6 8.7 3.5 12 4.4 3.3 0.8 10.3 1.9 15.5 2.5 5.7 0.5 13.1 0.6 18.5 0 5-0.4 12.6-1.6 17-2.5 4.4-0.9 8.2-1.9 8.5-2.1 0.3-0.2 0-0.9-0.6-1.6-0.6-0.7-54.4-72.4-119.6-159.3-65.1-86.9-132.8-176.9-150.3-200-17.5-23.1-33.6-44.7-35.7-48-2.2-3.3-4.8-8.9-5.9-12.5-1.1-3.6-1.9-8.1-1.9-10 0-1.9 0.8-6.4 1.9-10 1.1-3.6 4.1-9.6 6.8-13.5 2.7-3.9 10.3-13.7 16.9-22 6.6-8.2 19.2-24.2 28-35.5 8.8-11.3 52.5-68.6 97-127.5 44.6-58.9 93.3-123.3 108.2-143.3 15-19.9 27.1-36.4 27-36.7-0.2-0.3-5.9-1.7-12.8-3.1-10.7-2.2-14.2-2.5-24.5-2.1-8.5 0.3-14 1.1-19 2.7-3.8 1.2-9.9 3.7-13.5 5.5-3.6 1.8-9.9 5.9-14 9.2-4.1 3.3-10 8.9-13.1 12.4-3.1 3.5-16.9 21.9-30.6 40.9-13.7 19-34.1 46.9-45.3 62-11.2 15.1-31.7 42.4-45.4 60.5-13.8 18.2-40.9 53.9-60.4 79.5-19.4 25.6-40 52.7-45.8 60.3l-10.4 13.7c-31.4-41.5-46.6-61.4-54-71-7.4-9.6-32.4-42.7-55.5-73.5-23.1-30.8-50.4-67.5-60.6-81.5-10.2-14-27.3-38.1-38.1-53.5-10.8-15.4-22.2-31.1-25.5-34.9-3.2-3.9-8.9-9.6-12.8-12.8-3.9-3.3-10.4-7.6-14.5-9.7-4.1-2.1-10.4-4.8-14-5.9-3.6-1.2-10-2.6-14.2-3.2-4.3-0.5-11.5-0.9-16-0.9-4.6 0.1-11.2 0.5-14.8 1z"/>
		<path id="Path 3" class="s3" d="m173.5 1143c3.8 3.9 7.2 7 7.5 7 0.3 0-2.5-3.1-6.2-7-3.7-3.8-7.1-7-7.5-7-0.4 0 2.4 3.1 6.2 7z"/>
		<path id="Path 4" class="s4" d="m793.4 788.5c0 6.6 0.1 9.1 0.3 5.5 0.2-3.6 0.2-9 0-12-0.2-3-0.3-0.1-0.3 6.5z"/>
		<path id="Path 5" class="s5" d="m52.5 784.4c-3.5 3.4-3.9 4.3-3.7 8.2 0.2 3.4 0.9 5.2 3.6 8.2 1.9 2 3.7 3.5 4 3.2 0.3-0.3 0.5-5.7 0.3-12l-0.2-11.4z"/>
		<path id="Path 6" class="s0" d="m415.5 434.7c-2.2 0.2-10.1 1-17.5 1.9-7.4 0.8-18.9 2.7-25.5 4.1-6.6 1.4-17.4 4.1-24 6-6.6 1.9-18.3 5.9-26 8.9-7.7 3-19.2 8.2-25.5 11.6-6.3 3.3-16.7 9.3-23 13.4-6.3 4-16.2 10.9-22 15.4-5.8 4.5-15.2 12.5-20.9 17.8-5.7 5.3-14.3 14.2-19 19.7-4.8 5.5-11.3 13.6-14.6 18-3.2 4.4-9.4 13.4-13.8 20-4.3 6.6-12.1 20.5-17.2 31-5.1 10.5-11.8 25.8-14.8 34-3 8.3-7.1 20.9-9.1 28-2 7.1-4.7 18.4-6.1 25-1.5 6.6-3.5 17.9-4.5 25-1.1 7.1-2.4 18.4-3 25-0.5 6.6-1.1 14.6-1.2 17.7l-0.3 5.8h601.5c0-12-0.5-20.9-1-27.5-0.6-6.6-2-18.5-3.1-26.5-1.1-8-3.1-19.7-4.4-26-1.4-6.3-4.3-18.2-6.6-26.5-2.2-8.2-6.3-21.1-9.1-28.5-2.7-7.4-8.9-21.6-13.7-31.5-4.8-9.9-11.8-23-15.6-29-3.7-6-9.8-15-13.5-20-3.6-5-10-13-14.2-18-4.1-5-12.4-13.7-18.4-19.5-6-5.8-14.7-13.6-19.4-17.3-4.7-3.8-13.5-10.2-19.5-14.2-6-4-16.2-10-22.5-13.4-6.3-3.3-14.9-7.4-19-9.1-4.1-1.7-11.5-4.6-16.5-6.5-5-1.8-15.3-4.9-23-6.8-7.7-1.9-18.7-4.2-24.5-5.1-5.8-0.8-16.4-2-23.5-2.6-7.1-0.5-19.5-0.9-27.5-0.8-8 0.1-16.3 0.3-18.5 0.5z"/>
		<path id="Path 7" class="s6" d="m277 763.7c82.8 0.2 218.7 0.2 302 0 83.3-0.1 15.6-0.2-150.5-0.2-166.1 0-234.3 0.1-151.5 0.2z"/>
	</g>
</svg>