<svg version="1.2" xmlns="http://www.w3.org/2000/svg" viewBox="0 0 350 350" width="500" height="500">
	<title>prisma</title>
	<style>
		.s0 { fill: #ffffff } 
		.s1 { fill: #0c344b } 
	</style>
	<g id="Background">
		<path id="Path 0" class="s0" d="m179.5 23c-2.2 1.1-5.4 3.4-7.1 5.2-1.7 1.8-23.1 35.7-47.5 75.3-24.3 39.6-48.4 78.8-53.4 87-7.9 12.8-9.3 15.9-10 21-0.5 3.9-0.3 7.8 0.4 11 0.9 3.5 4.9 10.6 13.7 24 6.9 10.4 19.8 30 28.7 43.5 15.8 23.8 16.3 24.5 22.2 27.7 5.4 3 6.6 3.3 12.5 3 4-0.2 13.1-2.4 24-5.6 9.6-2.9 29-8.6 43-12.6 14-4.1 35.6-10.3 48-13.9 12.4-3.6 27.2-7.9 33-9.6 6.8-2 12.2-4.3 15.3-6.6 3.4-2.4 5.6-5.1 7.8-9.6 2.7-5.5 3-7.1 2.7-12.8-0.4-5.4-1.4-8.7-6.5-19.5-3.4-7.2-8.1-17.3-10.6-22.5-2.4-5.2-19.7-42.1-38.4-82-18.7-39.9-35-74.8-36.3-77.5-1.2-2.7-3.5-7.7-5-11-1.6-3.3-4.5-7.7-6.7-9.7-2.1-2-5.5-4.4-7.6-5.3-2.2-0.9-6.6-1.5-11-1.5-5 0.1-8.4 0.7-11.2 2z"/>
		<path id="Path 1" class="s1" d="m184 33.2c-4.1 2.1-5.5 4.1-17 22.8-6.9 11.3-31 50.4-53.6 87l-40.9 66.5v13c39.4 60.5 51.8 79.5 53.1 81.3 1.3 1.7 3.9 3.9 5.6 4.8 1.8 0.9 5.1 1.6 7.3 1.6 2.2 0 13.2-2.7 24.5-6 11.3-3.3 36.3-10.6 55.5-16.1 19.3-5.6 43.8-12.7 54.5-15.8 13.1-3.8 20.6-6.5 22.9-8.2 1.9-1.4 4.4-4.6 5.4-7.1 1.1-2.6 1.7-5.7 1.5-7.5-0.3-1.7-5.2-12.9-10.8-25-5.7-12.1-12.2-26.1-14.5-31-2.3-4.9-7.7-16.3-11.9-25.3-4.2-8.9-11-23.4-15.1-32.2-4.1-8.8-10.9-23.3-15.1-32.2-4.2-9-12.8-27.3-19.1-40.8-6.3-13.5-12.7-25.8-14.2-27.3-1.4-1.5-4.2-3.2-6.1-3.7-1.9-0.6-4.4-1-5.5-1-1.1 0-4 1-6.5 2.2z"/>
		<path id="Path 2" class="s0" d="m193 72.3c-0.6 2.8-2.7 12.6-4.6 21.7-1.9 9.1-5.2 24.8-7.4 35-2.1 10.2-7.8 36.7-12.5 59-4.7 22.3-11.3 53.2-14.5 68.8-3.3 15.5-5.8 28.9-5.5 29.7 0.3 0.8 1.7 1.8 3.3 2.1 1.9 0.5 11.2-1.8 30.7-7.5 15.4-4.5 43.8-12.7 63-18.3 19.3-5.6 35.8-10.8 36.8-11.7 1-0.9 1.8-2.5 1.8-3.6-0.1-1.1-2.9-8.1-6.5-15.5-3.5-7.4-16.1-34-28.1-59-12-25-23.9-50-26.5-55.5-2.6-5.5-8-16.7-12-25-4-8.2-8.3-17.4-9.6-20.2-1.9-4.3-2.9-5.3-4.8-5.3-2.2 0-2.6 0.7-3.6 5.3z"/>
	</g>
</svg>