<svg version="1.2" xmlns="http://www.w3.org/2000/svg" viewBox="0 0 500 500" width="500" height="500">
	<title>Screen Shot 2023-12-27 at 15</title>
	<style>
		.s0 { fill: #ffffff } 
		.s1 { fill: #010101 } 
	</style>
	<g id="Background">
		<path id="Path 0" class="s0" d="m-13 250v250h526v-500h-526z"/>
		<path id="Path 1" class="s1" d="m230.5 11.7c-2.2 0.2-8.9 1-15 1.9-6.1 0.8-15.5 2.6-21 3.9-5.5 1.3-14.9 4-21 6.1-6.1 2-15.9 5.9-22 8.6-6.1 2.7-16.2 8-22.5 11.7-6.3 3.8-16 10.2-21.5 14.3-5.5 4.1-13.7 10.8-18.2 14.9-4.5 4.1-11.6 11.2-15.9 15.9-4.2 4.7-10.7 12.5-14.5 17.5-3.7 5-9.3 13-12.4 18-3.1 4.9-8.3 14.4-11.5 21-3.2 6.6-7.5 16.5-9.5 22-2.1 5.5-5.2 15.8-7.1 23-1.8 7.2-4.1 18.2-5.1 24.5-1.3 8.6-1.8 17.3-1.8 34.5 0 17 0.5 26 1.8 34.5 1 6.3 3.1 16.7 4.7 23 1.6 6.3 4.5 16.2 6.5 22 2 5.8 6.9 17.3 10.9 25.5 4.1 8.3 10.5 19.7 14.3 25.5 3.8 5.8 10.6 15 15 20.5 4.4 5.5 12.9 14.7 18.9 20.5 6 5.8 14.7 13.5 19.4 17.1 4.7 3.7 12.3 9.1 17 12.2 4.7 3 13.2 8 19 11 5.8 3.1 15.4 7.6 21.5 10 6.1 2.5 15.7 5.9 21.5 7.6 5.8 1.6 15 3.9 20.5 5 5.5 1.1 13.6 2.4 18 3 4.4 0.5 13.4 1.3 20 1.6 7 0.4 17.7 0.2 25.5-0.4 7.4-0.7 17.6-1.8 22.5-2.6 4.9-0.8 13.5-2.6 19-3.9 5.5-1.4 14.7-4.1 20.5-6.1 5.8-2 14.1-5.3 18.5-7.3 4.4-2 12.1-5.9 17-8.5 4.9-2.7 13.3-7.7 18.5-11.2 5.2-3.5 13.3-9.4 18-13.1 4.7-3.8 13.6-12 19.9-18.4 6.3-6.3 15.3-16.7 20-23 4.8-6.3 11-15.3 13.8-20 2.8-4.7 7.4-13.1 10.2-18.8 2.8-5.6 6.4-13.5 8-17.5 1.5-3.9 4-10.8 5.4-15.2 1.5-4.4 3.8-12.7 5.1-18.5 1.3-5.8 3.2-15.9 4.2-22.5 1.2-8.2 1.7-18 1.7-31-0.1-10.4-0.6-23.1-1.2-28-0.7-4.9-2.3-14.6-3.7-21.5-1.4-6.9-4.5-18.3-6.9-25.5-2.3-7.2-6.4-17.7-9-23.5-2.6-5.8-6.8-14.1-9.3-18.5-2.4-4.4-7.5-12.5-11.3-18-3.7-5.5-10.3-14.3-14.7-19.5-4.3-5.2-12.1-13.5-17.3-18.4-5.2-5-12.8-11.7-16.9-15-4.1-3.3-12.2-9-18-12.8-5.8-3.8-17.2-10.2-25.5-14.3-8.2-4.1-19.7-9-25.5-11-5.8-2-14.8-4.7-20-6-5.2-1.4-12-2.9-15-3.5-3-0.6-11.4-1.7-18.5-2.5-7.1-0.8-19.3-1.4-27-1.3-7.7 0.1-15.8 0.3-18 0.5z"/>
		<path id="Path 2" class="s0" d="m226.5 52.2c-4.4 0.5-12.9 2-19 3.3-6.1 1.3-15.9 4-22 6-6.1 2-16.6 6.5-23.5 9.9-6.9 3.4-16.3 8.7-21 11.7-4.7 3.1-11.9 8.3-16 11.6-4.1 3.4-11.6 10.3-16.7 15.5-5.1 5.1-11.6 12.2-14.4 15.8-2.9 3.6-7.9 10.6-11.1 15.5-3.3 4.9-8.6 14.4-11.8 21-3.2 6.6-7.3 16.1-9 21-1.7 4.9-4.2 13.5-5.6 19-1.3 5.5-3.1 15.1-3.9 21.2-0.8 6.2-1.5 17.5-1.5 25 0 7.6 0.7 19.2 1.5 25.8 0.8 6.6 2.7 17.2 4.3 23.5 1.6 6.3 4.4 15.6 6.2 20.5 1.8 4.9 5.7 13.9 8.7 20 3.1 6.1 8 14.8 11 19.5 3.1 4.7 8 11.6 11.1 15.5 3.1 3.9 8.8 10.3 12.6 14.4 3.9 4.1 11.2 10.8 16.1 14.9 4.9 4.1 12.2 9.6 16 12.2 3.8 2.6 11.7 7.3 17.5 10.3 5.8 3.1 14.3 7.1 19 9.1 4.7 1.9 12.6 4.6 17.5 6.1 4.9 1.4 13.5 3.5 19 4.6 5.5 1 16.3 2.5 24 3.1 10.9 0.9 17.3 0.9 29-0.1 8.3-0.6 20.2-2.3 26.5-3.6 6.3-1.4 16.9-4.3 23.5-6.6 6.6-2.2 16.5-6.3 22-8.9 5.5-2.7 14.1-7.4 19-10.5 4.9-3.2 12.8-8.7 17.5-12.3 4.7-3.7 12.5-10.8 17.5-15.7 4.9-5 12-12.8 15.7-17.5 3.6-4.7 9.1-12.6 12.3-17.5 3.1-4.9 7.8-13.5 10.4-19 2.7-5.5 6.7-15.4 9-22 2.3-6.6 5.3-17.4 6.6-24 1.4-6.6 3-17.9 3.6-25 0.8-9.5 0.8-17.1 0-28.5-0.6-8.5-2.2-20.7-3.5-27-1.3-6.3-4.2-16.9-6.4-23.5-2.1-6.6-6.4-17.2-9.5-23.5-3-6.3-9.1-16.9-13.5-23.5-4.4-6.6-11.8-16.2-16.3-21.4-4.6-5.2-12.3-12.9-17-17-4.7-4.2-12.8-10.6-18-14.3-5.2-3.7-15-9.6-21.9-13.1-6.9-3.6-17-8.2-22.5-10.2-5.5-2.1-14.9-5-21-6.5-6.1-1.6-16.5-3.5-23.3-4.4-6.9-0.9-18.4-1.5-26.4-1.5-7.9 0.1-17.9 0.6-22.3 1.1z"/>
		<path id="Path 3" class="s1" d="m318.5 133.2c-13.8 11.1-44.6 36.4-68.5 56.2-23.9 19.9-46.5 38.6-50.2 41.6-3.6 3-6.5 5.8-6.2 6.3 0.2 0.4 16.2 0.7 35.4 0.7h35c13.8-21.3 31.9-48.9 49.2-75 17.3-26.1 31.6-48.1 31.9-48.7 0.3-0.7 0-1.3-0.6-1.3-0.5 0.1-12.2 9.1-26 20.2zm-90 139.6c-3.8 5.9-22 33.4-40.4 61.2-18.4 27.8-33.5 51.1-33.7 51.8-0.2 0.6-0.1 1.2 0.4 1.2 0.4 0 10.4-7.8 22.2-17.3 11.9-9.4 42.5-34.5 68-55.7 25.6-21.2 50-41.3 54.3-44.8 4.2-3.4 7.7-6.4 7.7-6.7 0-0.3-16.1-0.5-35.7-0.5h-35.8z"/>
	</g>
</svg>